<?xml version="1.0" encoding="UTF-8" standalone="no"?>
<!DOCTYPE svg PUBLIC "-//W3C//DTD SVG 1.1//EN" "http://www.w3.org/Graphics/SVG/1.1/DTD/svg11.dtd">
<svg width="100%" height="100%" viewBox="0 0 24 24" version="1.1" xmlns="http://www.w3.org/2000/svg" xmlns:xlink="http://www.w3.org/1999/xlink" xml:space="preserve" style="fill-rule:evenodd;clip-rule:evenodd;stroke-linejoin:round;stroke-miterlimit:1.41421;">
    <rect x="0" y="0" width="24" height="24" style="fill:none;"/>
    <g transform="matrix(0.750221,0,0,0.750221,3.00399,1.61826)">
        <path d="M17.34,14.86C16.47,13.84 15.74,12.97 14.86,11.95C14.4,11.41 13.81,10.87 13.11,10.63C13,10.59 12.89,10.56 12.78,10.54C12.53,10.5 12.26,10.5 12,10.5C11.74,10.5 11.47,10.5 11.21,10.55C11.1,10.57 10.99,10.6 10.88,10.64C10.18,10.88 9.6,11.42 9.13,11.96C8.26,12.98 7.53,13.85 6.65,14.87C5.34,16.18 3.73,17.63 4.03,19.66C4.32,20.68 5.05,21.69 6.36,21.98C7.09,22.13 9.42,21.54 11.9,21.54L12.08,21.54C14.56,21.54 16.89,22.12 17.62,21.98C18.93,21.69 19.66,20.67 19.95,19.66C20.26,17.62 18.65,16.17 17.34,14.86Z" style="fill:rgb(176,190,197);fill-rule:nonzero;"/>
    </g>
    <g transform="matrix(1.85634,0,0,1,4.14932,0)">
        <ellipse cx="7.192" cy="10.502" rx="0.808" ry="1.498" style="fill:rgb(176,190,197);"/>
    </g>
    <g transform="matrix(1.85634,0,0,1,1.14932,-4)">
        <ellipse cx="7.192" cy="10.502" rx="0.808" ry="1.498" style="fill:rgb(176,190,197);"/>
    </g>
    <g transform="matrix(1.85634,0,0,1,-3.85069,-4)">
        <ellipse cx="7.192" cy="10.502" rx="0.808" ry="1.498" style="fill:rgb(176,190,197);"/>
    </g>
    <g transform="matrix(1.85634,0,0,1,-6.85068,0)">
        <ellipse cx="7.192" cy="10.502" rx="0.808" ry="1.498" style="fill:rgb(176,190,197);"/>
    </g>
    <path d="M12.762,17.801C12.817,18.063 12.942,18.3 13.11,18.49C13.35,18.76 13.5,19.11 13.5,19.5C13.5,20.33 12.83,21 12,21C7.03,21 3,16.97 3,12C3,7.03 7.03,3 12,3C16.97,3 21,6.58 21,11C21,13.061 19.75,14.833 17.968,15.597C18.008,15.843 18.012,16.101 17.971,16.372C17.753,17.13 17.206,17.895 16.223,18.113C15.744,18.204 14.348,17.883 12.762,17.801C12.741,17.704 12.73,17.603 12.73,17.5C12.73,16.67 13.4,16 14.23,16L16,16C16.699,16 17.364,15.856 17.968,15.597C17.782,14.459 16.821,13.579 16.013,12.771C15.36,12.006 14.812,11.353 14.152,10.588C13.807,10.183 13.365,9.778 12.839,9.598C12.757,9.568 12.674,9.545 12.592,9.53C12.404,9.5 12.202,9.5 12.007,9.5C11.812,9.5 11.609,9.5 11.414,9.538C11.331,9.553 11.249,9.575 11.166,9.605C10.641,9.785 10.206,10.19 9.854,10.595C9.201,11.361 8.653,12.013 7.993,12.778C7.01,13.761 5.802,14.849 6.027,16.372C6.245,17.137 6.793,17.895 7.775,18.113C8.323,18.225 10.071,17.782 11.932,17.782L12.067,17.782C12.301,17.782 12.533,17.789 12.762,17.801ZM6.5,12C5.67,12 5,11.33 5,10.5C5,9.67 5.67,9 6.5,9C7.33,9 8,9.67 8,10.5C8,11.33 7.33,12 6.5,12ZM17.5,12C16.67,12 16,11.33 16,10.5C16,9.67 16.67,9 17.5,9C18.33,9 19,9.67 19,10.5C19,11.33 18.33,12 17.5,12ZM9.5,8C8.67,8 8,7.33 8,6.5C8,5.67 8.67,5 9.5,5C10.33,5 11,5.67 11,6.5C11,7.33 10.33,8 9.5,8ZM14.5,8C13.67,8 13,7.33 13,6.5C13,5.67 13.67,5 14.5,5C15.33,5 16,5.67 16,6.5C16,7.33 15.33,8 14.5,8Z" style="fill:rgb(96,125,139);"/>
</svg>
